PathFileType	4	(X/Y/Z)	Walk9.trc
DataRate	CameraRate	NumFrames	NumMarkers	Units	OrigDataRate	OrigDataStartFrame	OrigNumFrames
200.000000	200.000000	4	59	mm	200.000000	660	743
Frame#	Times		LToe		LBHD		LWRR		LElbowM		C7		RMT1		LACR1		RMT5		RToe		RTB2		LUA1		LCAR		RTB3		RWRU		LWRU		RCAR		RFA1		RCAL		RMMAL		RLFC		LMMAL		LTH2		RElbowM		LTB2		LPSI		LASI		LTH3		LLFC		RTH3		RASI		RPSI		LFHD		LCAL		STRN		LMT5		RBHD		RACR1		RMFC		RLMAL		RElbow		LLMAL		LMFC		RFHD		LTB1		LTH4		RUA1		LTB4		RBack		LTH1		RTB1		LElbow		RTH2		LMT1		RTH1		RTH4		LTB3		RTB4		RWRR		T10
			X1	Y1	Z1	X2	Y2	Z2	X3	Y3	Z3	X4	Y4	Z4	X5	Y5	Z5	X6	Y6	Z6	X7	Y7	Z7	X8	Y8	Z8	X9	Y9	Z9	X10	Y10	Z10	X11	Y11	Z11	X12	Y12	Z12	X13	Y13	Z13	X14	Y14	Z14	X15	Y15	Z15	X16	Y16	Z16	X17	Y17	Z17	X18	Y18	Z18	X19	Y19	Z19	X20	Y20	Z20	X21	Y21	Z21	X22	Y22	Z22	X23	Y23	Z23	X24	Y24	Z24	X25	Y25	Z25	X26	Y26	Z26	X27	Y27	Z27	X28	Y28	Z28	X29	Y29	Z29	X30	Y30	Z30	X31	Y31	Z31	X32	Y32	Z32	X33	Y33	Z33	X34	Y34	Z34	X35	Y35	Z35	X36	Y36	Z36	X37	Y37	Z37	X38	Y38	Z38	X39	Y39	Z39	X40	Y40	Z40	X41	Y41	Z41	X42	Y42	Z42	X43	Y43	Z43	X44	Y44	Z44	X45	Y45	Z45	X46	Y46	Z46	X47	Y47	Z47	X48	Y48	Z48	X49	Y49	Z49	X50	Y50	Z50	X51	Y51	Z51	X52	Y52	Z52	X53	Y53	Z53	X54	Y54	Z54	X55	Y55	Z55	X56	Y56	Z56	X57	Y57	Z57	X58	Y58	Z58	X59	Y59	Z59

660	3.3	808.11	65.26	-96.594	457.67	1596.8	-100.88	373.83	798.71	-307.62	375.76	1080.1	-305.09	427.92	1469.2	-33.744	261.95	27.988	32.077	512.26	1400	-205.94	223.54	40.422	105.2	310.1	23.001	69.731	336.88	286.88	96.141	446.42	1204	-274.49	359.27	940.81	-310.82	279.19	218.11	21.672	518.94	804.97	231.53	439.99	765.42	-295.11	594.08	797.03	237.02	491.06	922.01	258.89	93.972	141.19	14.671	182.61	130.59	-1.8994	449.66	493.31	103.96	644.87	72.69	-47.667	601.17	693.96	-139.57	399.85	1077.5	187.93	635.46	310.04	-145.44	328.63	1028.6	-65.734	521.54	1017.1	-181.12	571.32	582.89	-163.06	573.98	520.95	-157.2	454.67	540.2	108.74	495.57	974.17	127.84	322.57	1030.7	3.4272	635.82	1634.2	-77.081	559.19	32.028	-74.675	343.8	1215.5	-25.32	733.23	28.163	-150.98	464.06	1591.2	35.919	413.34	1360.2	123.78	414.51	468	-19.007	156.79	145.03	75.349	443.56	1076.9	262.81	618.75	60.502	-127.33	563.15	494.04	-29.234	639.08	1632.8	-2.1216	639.4	403.11	-74.064	546.78	673.07	-183.83	513.86	1234.9	208.55	642.07	310.32	-73.702	543.82	1411.7	116.46	521.44	760.91	-200.69	410.06	350.68	23.07	335.62	1081.2	-229.6	518.01	639.33	85.29	773.55	35.253	-77.754	452.47	728.49	141.24	457.25	633.22	127.42	646.37	217.83	-75.44	341.58	281.47	19.681	581.18	839.9	185.65	632.19	1219.9	-41.297
661	3.305	809.13	64.109	-96.698	462.51	1597.1	-101.67	381.25	798.7	-308.32	382.11	1080	-305.82	432.63	1469.6	-34.595	263.09	28.724	31.797	517.33	1400.5	-206.65	226.31	43.096	104.88	310.8	23.737	69.272	344.34	289.01	96.691	452.37	1204.1	-275.15	366.15	940.72	-311.51	285.83	220.8	22.342	522.18	805.2	230.56	447.51	765.65	-295.71	597.28	796.98	236.21	494.69	922.32	257.93	99.565	147.78	15.078	187.93	134.82	-1.3566	459.72	493.3	104.25	645.32	72.465	-47.674	605.86	694.53	-139.92	404.03	1078.2	186.87	638	309.71	-145.64	333.38	1028.9	-66.416	526.39	1017.6	-181.83	576.01	583.47	-163.43	578.08	521.11	-157.65	464.31	540.11	108.93	501.41	974.57	126.79	327.29	1030.8	2.7327	640.69	1634.3	-77.833	559.38	32.201	-74.728	348.44	1215.9	-26.254	733.48	27.615	-151.33	468.85	1591.7	35.125	417.99	1360.6	123	424.78	467.7	-18.974	162.22	149.87	75.863	447.65	1077.4	261.77	619.14	60.35	-127.36	567.21	494.55	-29.482	643.95	1633	-2.8789	642.57	402.81	-74.351	551.58	673.65	-184.31	518.32	1235.2	207.6	644.46	310.02	-73.892	548.45	1412	115.6	526.35	761.48	-201.34	418.78	351.37	23.682	341.86	1081.1	-230.35	526.28	639.94	84.795	773.94	34.619	-77.985	459.81	728.54	140.72	465.75	633.23	127.22	647.99	217.48	-75.525	349.2	283.19	20.287	584.69	839.94	184.81	636.91	1220.3	-41.935
662	3.31	810.14	63.034	-96.767	467.31	1597.5	-102.43	388.76	798.68	-309	388.47	1080	-306.58	437.28	1469.9	-35.437	264.61	29.642	31.478	522.35	1401	-207.34	229.52	45.895	104.59	311.94	24.657	68.782	352.03	291.15	97.228	458.3	1204.3	-275.82	373.08	940.62	-312.22	292.73	223.49	23.014	525.41	805.43	229.59	455.13	765.89	-296.3	600.48	796.92	235.39	498.29	922.62	256.99	105.49	154.22	15.544	193.55	139	-0.82473	469.83	493.33	104.58	645.73	72.25	-47.647	610.45	694.92	-140.44	408.16	1078.8	185.84	640.48	309.38	-145.8	338.11	1029.1	-67.103	531.2	1018	-182.52	580.38	583.93	-163.9	581.96	521.21	-158.1	474	540.07	109.18	507.35	975.04	125.74	331.99	1030.8	2.023	645.52	1634.4	-78.551	559.55	32.356	-74.763	353.06	1216.2	-27.188	733.71	27.154	-151.67	473.59	1592.1	34.36	422.57	1361	122.22	435.19	467.48	-18.954	167.99	154.63	76.4	451.7	1077.8	260.77	619.49	60.219	-127.37	571.06	495.04	-29.648	648.78	1633.1	-3.6024	645.62	402.52	-74.6	556.17	674.14	-184.86	522.73	1235.6	206.68	646.76	309.71	-74.046	553.02	1412.3	114.76	531.18	762	-202	427.65	352.14	24.256	348.09	1080.9	-231.15	534.61	640.58	84.357	774.32	34.079	-78.179	467.2	728.63	140.23	474.31	633.28	127.06	649.55	217.14	-75.577	357.03	284.94	20.889	588.18	839.98	183.98	641.59	1220.7	-42.562
663	3.315	811.12	62.026	-96.809	472.07	1597.9	-103.16	396.35	798.64	-309.68	394.83	1079.9	-307.36	441.87	1470.3	-36.269	266.59	30.759	31.135	527.33	1401.5	-208.01	233.23	48.794	104.34	313.62	25.777	68.268	359.93	293.29	97.74	464.22	1204.5	-276.51	380.04	940.5	-312.93	299.88	226.17	23.673	528.63	805.64	228.62	462.86	766.16	-296.87	603.67	796.86	234.55	501.86	922.9	256.06	111.72	160.44	16.067	199.47	143.11	-0.31123	479.95	493.42	104.92	646.1	72.043	-47.591	614.94	695.12	-141.12	412.23	1079.4	184.85	642.9	309.05	-145.94	342.82	1029.3	-67.795	535.99	1018.5	-183.21	584.41	584.26	-164.46	585.64	521.25	-158.53	483.7	540.1	109.48	513.37	975.57	124.71	336.68	1030.8	1.2995	650.32	1634.6	-79.232	559.72	32.497	-74.785	357.68	1216.5	-28.116	733.94	26.768	-151.97	478.3	1592.5	33.623	427.09	1361.3	121.44	445.69	467.38	-18.95	174.11	159.27	76.956	455.71	1078.2	259.78	619.81	60.106	-127.35	574.67	495.52	-29.713	653.56	1633.3	-4.291	648.57	402.21	-74.815	560.54	674.54	-185.47	527.09	1235.9	205.78	648.98	309.41	-74.168	557.52	1412.6	113.95	535.9	762.47	-202.68	436.63	352.99	24.774	354.3	1080.8	-232	542.97	641.26	83.977	774.68	33.624	-78.337	474.64	728.76	139.78	482.89	633.39	126.93	651.04	216.81	-75.602	365.03	286.71	21.473	591.65	840.02	183.14	646.22	1221	-43.182
